<svg xmlns="http://www.w3.org/2000/svg" width="53.993" height="47.994" viewBox="0 0 53.993 47.993999"><path d="M51.993 25.996h-4c-1.104 0-2-.895-2-2 0-1.104.896-1.998 2-1.998h4c1.104 0 2 .895 2 1.998 0 1.105-.896 2-2 2zm-7.857-13.312c-.78.78-2.047.78-2.828 0-.78-.78-.78-2.047 0-2.827l2.828-2.828c.78-.782 2.047-.782 2.828 0 .78.78.78 2.046 0 2.827l-2.828 2.827zM41.19 28.29c1.748 2.087 2.805 4.77 2.805 7.706 0 6.625-5.372 11.998-12 11.998H16C7.163 47.994 0 40.832 0 31.996c0-8.836 7.163-15.998 15.998-15.998 1.572 0 3.09.232 4.523.654 2.196-2.827 5.62-4.654 9.476-4.654 6.627 0 12 5.373 12 11.998-.002 1.515-.295 2.96-.807 4.295zM4 31.997c0 6.627 5.37 11.998 11.997 11.998h15.998c4.418 0 8-3.582 8-7.998 0-4.418-3.582-8-8-8-1.6 0-3.083.482-4.333 1.29C26.432 23.972 21.688 20 15.997 20 9.37 19.998 4 25.368 4 31.996zm25.995-15.998c-2.212 0-4.215.898-5.662 2.35 2.34 1.435 4.285 3.452 5.63 5.853.663-.112 1.336-.204 2.032-.204 2.125 0 4.12.56 5.85 1.527.096-.494.15-1.004.15-1.527 0-4.416-3.582-7.998-8-7.998zm0-8c-1.104 0-2-.895-2-2V2c0-1.105.897-2 2-2 1.105 0 2 .895 2 2v4c0 1.104-.894 1.998-2 1.998zm-14.14 4.686l-2.827-2.827c-.78-.78-.78-2.048 0-2.828.78-.782 2.047-.782 2.827 0l2.828 2.827c.78.78.78 2.047 0 2.827-.78.78-2.047.78-2.828 0z" fill="#fff" fill-rule="evenodd"/></svg>