<svg xmlns="http://www.w3.org/2000/svg" width="53.993" height="52.992" viewBox="0 0 53.993 52.991749"><path clip-rule="evenodd" d="M51.993 25.996h-4c-1.103 0-2-.895-2-2 0-1.104.897-2 2-2h4c1.104 0 2 .896 2 2 0 1.106-.895 2-2 2zm-7.856-13.312c-.78.78-2.047.78-2.828 0-.782-.78-.782-2.047 0-2.828l2.827-2.828c.78-.78 2.047-.78 2.828 0 .78.78.78 2.048 0 2.828l-2.828 2.828zM41.19 28.292c1.747 2.084 2.804 4.77 2.804 7.703 0 6.627-5.37 11.998-11.998 11.998h-1c0-1.37-.32-2.742-.943-3.998h1.943c4.418 0 8-3.582 8-8s-3.582-7.998-8-7.998c-1.6 0-3.084.48-4.334 1.29-1.23-5.317-5.973-9.29-11.664-9.29C9.37 19.997 4 25.37 4 31.995c0 1.406.254 2.748.697 4h-.005c1.437 4.053 4.987 7.104 9.33 7.824-.636 1.214-.968 2.546-1.01 3.886-6.097-1.152-10.965-5.76-12.5-11.71h.012c-.33-1.28-.524-2.616-.524-4 0-8.835 7.162-15.998 15.998-15.998 1.572 0 3.09.23 4.523.654 2.196-2.827 5.618-4.654 9.476-4.654 6.627 0 11.998 5.37 11.998 11.998 0 1.516-.292 2.96-.805 4.296zM29.995 15.998c-2.213 0-4.215.898-5.662 2.35 2.34 1.435 4.285 3.452 5.63 5.854.663-.113 1.335-.205 2.032-.205 2.125 0 4.118.56 5.85 1.527.096-.494.15-1.004.15-1.527 0-4.42-3.582-8-8-8zm0-8c-1.104 0-2-.895-2-2v-4c0-1.103.896-1.998 2-1.998s2 .895 2 2v3.998c0 1.106-.895 2-2 2zm-14.14 4.686l-2.83-2.828c-.78-.78-.78-2.047 0-2.828.782-.78 2.048-.78 2.83 0l2.827 2.828c.78.78.78 2.048 0 2.828-.78.78-2.046.78-2.828 0zm6.14 28.24l3.536 3.535c1.952 1.95 1.952 5.116 0 7.067-1.952 1.953-5.118 1.953-7.07 0-1.952-1.95-1.952-5.117 0-7.068l3.535-3.536z" fill="#fff" fill-rule="evenodd"/></svg>