 <?xml version="1.0" encoding="utf-8"?>
 <!-- Generator: Adobe Illustrator 15.1.0, SVG Export Plug-In . SVG Version: 6.00 Build 0)  -->
 <!DOCTYPE svg PUBLIC "-//W3C//DTD SVG 1.1//EN" "http://www.w3.org/Graphics/SVG/1.1/DTD/svg11.dtd">
 <svg version="1.1" id="Layer_1" xmlns="http://www.w3.org/2000/svg" xmlns:xlink="http://www.w3.org/1999/xlink" x="0px" y="0px"
   width="43.994999px"
   height="31.996px"
   viewBox="0 0 43.994999 31.996" enable-background="new 0 0 43.994999 31.996" xml:space="preserve">
 <path fill-rule="evenodd" fill="#fff" clip-rule="evenodd" d="M 15.998,31.996 C 7.163,31.996 0,24.834 0,15.998 0,7.162 7.163,0 15.998,0 c 6.004,0 11.229,3.312 13.965,8.203 0.664,-0.113 1.338,-0.205 2.033,-0.205 6.627,0 11.999,5.373 11.999,12 0,6.625 -5.372,11.998 -11.999,11.998 -2.775,0 -12.8,0 -15.998,0 z m 15.998,-4 c 4.418,0 8,-3.582 8,-7.998 0,-4.418 -3.582,-8 -8,-8 -1.6,0 -3.082,0.481 -4.333,1.291 C 26.432,7.973 21.689,3.999 15.998,3.999 9.372,3.999 4,9.371 4,15.998 c 0,6.626 5.372,11.998 11.998,11.998 3.617,0 12.979,0 15.998,0 z"/>
 </svg>
