<svg xmlns="http://www.w3.org/2000/svg" width="47.994" height="47.994" viewBox="0 0 47.993999 47.993999"><path clip-rule="evenodd" d="M45.994 25.996h-3.998c-1.105 0-2-.895-2-2 0-1.103.895-2 2-2h3.998c1.105 0 2 .897 2 2 0 1.105-.894 2-2 2zm-7.855-13.31c-.782.78-2.05.78-2.83 0-.78-.782-.78-2.048 0-2.83l2.83-2.827c.778-.782 2.046-.782 2.827 0 .78.78.78 2.046 0 2.827l-2.828 2.828zm-14.142 23.31c-6.627 0-12-5.373-12-12 0-6.626 5.372-11.998 12-11.998 6.627 0 11.998 5.372 11.998 12 0 6.625-5.37 11.997-11.998 11.997zm0-19.998c-4.418 0-8 3.58-8 8 0 4.416 3.583 7.998 8 7.998s7.998-3.582 7.998-8c0-4.417-3.58-7.998-7.998-7.998zm0-8c-1.105 0-2-.895-2-2V2c0-1.104.895-2 2-2 1.104 0 2 .896 2 2v4c0 1.103-.897 2-2 2zm-14.14 4.687l-2.83-2.828c-.78-.78-.78-2.047 0-2.828.782-.782 2.048-.782 2.83 0l2.827 2.827c.78.78.78 2.047 0 2.828-.78.78-2.047.78-2.828 0zm-1.86 11.312c0 1.104-.895 2-2 2H2c-1.103 0-1.998-.896-1.998-2s.896-2 2-2h4c1.104 0 2 .896 2 2zM9.86 35.31c.78-.78 2.046-.78 2.827 0 .78.78.78 2.047 0 2.827l-2.828 2.828c-.78.78-2.047.78-2.828 0-.782-.78-.782-2.047 0-2.828l2.827-2.828zm14.14 4.685c1.104 0 2 .895 2 2v4c0 1.103-.896 2-2 2-1.105 0-2-.897-2-2v-4c0-1.105.895-2 2-2zm14.14-4.686l2.83 2.827c.778.78.778 2.048 0 2.828-.782.78-2.05.78-2.83 0l-2.827-2.828c-.78-.78-.78-2.047 0-2.828.78-.782 2.047-.782 2.83 0z" fill="#fff" fill-rule="evenodd"/></svg>